<svg xmlns="http://www.w3.org/2000/svg" width="224" height="90" viewBox="0 0 224 90" fill="none">
                                    <path class="letter" d="M100.029 41.8423V17.96H114.404V19.8395H102.128V28.7401H113.748V30.6196H102.128V39.9627H114.564V41.8423H100.029Z" fill="#191919"></path>
                                    <path class="letter" d="M130.147 41.8423H127.79L117.905 17.96H120.133L128.984 39.5798L137.805 17.96H140.032L130.147 41.8423Z" fill="#191919"></path>
                                    <path class="letter" d="M143.855 41.8423V17.96H158.231V19.8395H145.954V28.7401H157.574V30.6196H145.954V39.9627H158.39V41.8423H143.855Z" fill="#191919"></path>
                                    <path class="letter" d="M180.855 41.8423H178.513L172.561 31.7633H165.59V41.8423H163.486V17.96H172.273C173.908 17.96 175.321 18.2434 176.509 18.8053C177.697 19.3671 178.617 20.1627 179.264 21.192C179.91 22.2213 180.233 23.4495 180.233 24.8716C180.233 26.6019 179.751 28.0439 178.786 29.1926C177.822 30.3412 176.484 31.1069 174.774 31.4749L180.855 41.8373V41.8423ZM165.585 29.8887H172.158C173.983 29.8887 175.425 29.4412 176.489 28.5412C177.553 27.6412 178.08 26.4229 178.08 24.8716C178.08 23.3202 177.553 22.0821 176.494 21.187C175.435 20.292 173.993 19.8395 172.158 19.8395H165.585V29.8837V29.8887Z" fill="#191919"></path>
                                    <path class="letter" d="M120.038 68.1913C118.924 69.2753 117.602 70.1256 116.075 70.7372C114.549 71.3488 112.888 71.662 111.093 71.662C109.298 71.662 107.607 71.3537 106.076 70.7322C104.544 70.1106 103.217 69.2405 102.088 68.1217C100.959 67.0029 100.079 65.6902 99.4525 64.1836C98.826 62.6769 98.5127 61.0311 98.5127 59.246C98.5127 57.4609 98.826 55.8151 99.4525 54.3035C100.079 52.7919 100.959 51.4792 102.088 50.3653C103.217 49.2515 104.549 48.3814 106.076 47.7648C107.602 47.1482 109.278 46.835 111.093 46.835C112.908 46.835 114.529 47.1432 116.05 47.7598C117.572 48.3764 118.894 49.2316 120.008 50.3206L116.587 53.7615C115.921 52.946 115.106 52.2996 114.146 51.8272C113.186 51.3548 112.142 51.1211 111.018 51.1211C109.894 51.1211 108.955 51.325 108.05 51.7327C107.145 52.1405 106.349 52.7123 105.668 53.4532C104.987 54.1941 104.465 55.0543 104.092 56.0388C103.719 57.0234 103.535 58.0924 103.535 59.241C103.535 60.3897 103.719 61.4836 104.092 62.4731C104.465 63.4626 104.987 64.3228 105.668 65.0587C106.349 65.7946 107.14 66.3714 108.05 66.7792C108.96 67.1869 109.944 67.3908 111.018 67.3908C112.142 67.3908 113.181 67.1521 114.141 66.6847C115.101 66.2173 115.906 65.5659 116.577 64.7504L120.048 68.2062L120.038 68.1913Z" fill="#191919"></path>
                                    <path class="letter" d="M142.966 71.1841H137.536L132.519 62.557H127.964V71.1841H123.062V47.3018H132.743C134.662 47.3018 136.308 47.6051 137.68 48.2067C139.053 48.8084 140.097 49.6835 140.823 50.8272C141.549 51.9708 141.912 53.3332 141.912 54.9244C141.912 56.5156 141.529 57.9526 140.758 59.1012C139.987 60.2498 138.894 61.115 137.471 61.6868L142.966 71.1741V71.1841ZM127.969 58.6587H132.38C133.832 58.6587 134.95 58.3553 135.731 57.7437C136.512 57.1321 136.9 56.262 136.9 55.1233C136.9 53.9846 136.512 53.1145 135.731 52.5029C134.95 51.8913 133.837 51.5879 132.38 51.5879H127.969V58.6587Z" fill="#191919"></path>
                                    <path class="letter" d="M145.576 71.1841V47.3018H160.986V51.583H150.479V57.0128H160.334V61.3089H150.479V66.8979H161.145V71.1791H145.576V71.1841Z" fill="#191919"></path>
                                    <path class="letter" d="M168.454 71.1841H163.312L172.835 47.3018H178.011L187.513 71.1841H182.372L180.412 66.0576H170.413L168.454 71.1841ZM172.019 61.7614H178.816L175.41 52.9106L172.019 61.7614Z" fill="#191919"></path>
                                    <path class="letter" d="M198.557 71.184H193.654V51.5879H186.618V47.3066H205.613V51.5879H198.562V71.184H198.557Z" fill="#191919"></path>
                                    <path class="letter" d="M207.87 71.1841V47.3018H223.28V51.583H212.773V57.0128H222.628V61.3089H212.773V66.8979H223.439V71.1791H207.87V71.1841Z" fill="#191919"></path>
                                    <path class="yellow-square" d="M89.5672 0.0595703H0.0644531V89.5623H89.5672V0.0595703Z" fill="white"></path>
                                    <path class="to-white" d="M9.00977 71.6616H17.96L44.8109 17.96H35.8606L9.00977 71.6616Z" fill="#FDCD21"></path>
                                    <path class="to-white" d="M26.9102 71.6616H35.8604L62.7113 17.96H53.761L26.9102 71.6616Z" fill="#53C0A7"></path>
                                    <path class="to-white" d="M44.8115 71.6616H53.7618L80.6126 17.96H71.6623L44.8115 71.6616Z" fill="#1A1A1A"></path>
                                </svg>